<svg width="256" height="122" viewBox="0 0 256 122" fill="none" xmlns="http://www.w3.org/2000/svg">
<path id="Vector" d="M1.38281 10.7564L5.59493 6.75458C9.80705 2.75279 18.2313 -5.2508 26.6555 13.4012C35.0798 32.0532 43.504 77.3608 51.9283 87.8612C60.3525 98.3616 68.7768 74.0547 77.201 54.3119C85.6252 34.569 94.0495 19.3901 102.474 27.3036C110.898 35.2171 119.322 66.223 127.746 77.3359C136.171 88.4488 144.595 79.6688 153.019 67.0646C161.443 54.4604 169.868 38.0321 178.292 47.3416C186.716 56.6511 195.14 91.6984 203.565 93.5491C211.989 95.3999 220.413 64.0543 228.837 63.1061C237.262 62.158 245.686 91.6074 249.898 106.332L254.11 121.057" stroke="#0F4DEE" stroke-width="2"/>
</svg>
